<?xml version="1.0" standalone="no"?><!DOCTYPE svg PUBLIC "-//W3C//DTD SVG 1.1//EN" "http://www.w3.org/Graphics/SVG/1.1/DTD/svg11.dtd"><svg t="1762758313414" class="icon" viewBox="0 0 1024 1024" version="1.1" xmlns="http://www.w3.org/2000/svg" p-id="5072" xmlns:xlink="http://www.w3.org/1999/xlink" width="200" height="200"><path d="M512.06 512.06m-447.94 0a447.94 447.94 0 1 0 895.88 0 447.94 447.94 0 1 0-895.88 0Z" fill="#4A8FF7" p-id="5073"></path><path d="M747.07 496.28a152.27 152.27 0 0 0-98.83-264.79v-0.05H377.08a144.45 144.45 0 0 0-144.45 144.45v357.63A34.48 34.48 0 0 0 267.11 768h18.41A34.48 34.48 0 0 0 320 733.52V401.67a65.06 65.06 0 0 1 65.06-65.07h262.66a52.58 52.58 0 0 1 0 105.16H433.19A33.25 33.25 0 0 0 399.94 475v38.67a33.25 33.25 0 0 0 33.25 33.25h211.43v0.08a57.94 57.94 0 0 1 0 115.81v0.05h-214a30.69 30.69 0 0 0-30.69 30.69v43.78a30.69 30.69 0 0 0 30.7 30.67H658.1c76.93-2.13 138.7-70.44 138.7-154.4 0-46.97-19.29-88.99-49.73-117.32z" fill="#FFFFFF" p-id="5074"></path></svg>